<svg id="Layer_1" data-name="Layer 1" xmlns="http://www.w3.org/2000/svg" viewBox="0 0 35 35"><defs><style>.cls-1{fill:#fff;}</style></defs><g id="Ideas"><g id="Desktop:-Widescreen-Video"><g id="Group-3"><g id="Group"><path id="Shape" class="cls-1" d="M17.74,3.65l-9.88,6H4.44A4.36,4.36,0,0,0,.08,14v7.13a4.36,4.36,0,0,0,4.36,4.36H7.88l9.87,5.83a1.46,1.46,0,0,0,2.18-1.25V4.89a1.43,1.43,0,0,0-2.19-1.24Z"/></g></g></g></g><path id="x" class="cls-1" d="M34.51,12.84a1.46,1.46,0,0,0-1-.41,1.48,1.48,0,0,0-1,.45l-2.89,3-3-2.89a1.48,1.48,0,0,0-2.08,0,1.46,1.46,0,0,0,0,2.08l3,2.89-2.89,3a1.47,1.47,0,0,0,2.12,2l2.89-3,3,2.89a1.47,1.47,0,0,0,2-2.08l-3-2.89,2.89-3A1.47,1.47,0,0,0,35,13.89a1.51,1.51,0,0,0-.47-1.05Z"/></svg>