<?xml version="1.0" encoding="UTF-8"?>
<svg fill="#FFFFFF" width="100pt" height="100pt" version="1.1" viewBox="0 0 100 100" xmlns="http://www.w3.org/2000/svg">
 <g>
  <path d="m35.602 2.5h-22.301c-2.1016 0-3.8984 1.6992-3.8984 3.8984v87.301c0 2.1016 1.6992 3.8984 3.8984 3.8984h22.199c2.1016 0 3.8984-1.6992 3.8984-3.8984v-87.301c0-2.1992-1.6992-3.8984-3.7969-3.8984z"/>
  <path d="m86.699 2.5h-22.301c-2.1016 0-3.8984 1.6992-3.8984 3.8984v87.301c0 2.1016 1.6992 3.8984 3.8984 3.8984h22.199c2.1016 0 3.8984-1.6992 3.8984-3.8984l0.003906-87.301c0-2.1992-1.6992-3.8984-3.8008-3.8984z"/>
 </g>
</svg>
