<svg id="Layer_1" data-name="Layer 1" xmlns="http://www.w3.org/2000/svg" viewBox="0 0 35 35"><defs><style>.cls-1{fill:#fff;}</style></defs><g id="Ideas"><g id="Desktop:-Widescreen-Video"><g id="Group-3"><g id="Group"><path id="Shape" class="cls-1" d="M17.74,3.65l-9.88,6H4.44A4.36,4.36,0,0,0,.08,14v7.13a4.36,4.36,0,0,0,4.36,4.36H7.88l9.87,5.83a1.46,1.46,0,0,0,2.18-1.25V4.89a1.43,1.43,0,0,0-2.19-1.24Z"/></g></g></g></g><path id="sound" class="cls-1" d="M27.53,22.94c2.47-2.39,2.47-7.19,0-9.83-1.62-1.69-3.2.21-2.39,1.09a5.43,5.43,0,0,1,0,7.69c-.9.93.77,2.82,2.39,1.05Zm4.41,3.32C36,21,36,14.92,32,10c-1.9-2.29-3.6.12-1.9,1.88a9.37,9.37,0,0,1,0,12.34c-1.66,1.87,0,4,1.86,2Z"/></svg>